G75*
%MOIN*%
%OFA0B0*%
%FSLAX25Y25*%
%IPPOS*%
%LPD*%
%AMOC8*
5,1,8,0,0,1.08239X$1,22.5*
%
%ADD10C,0.04800*%
%ADD11C,0.07800*%
%ADD12C,0.01000*%
%ADD13C,0.05000*%
%ADD14C,0.01600*%
%ADD15C,0.02400*%
D10*
X0056800Y0134400D02*
X0056800Y0139200D01*
X0066800Y0139200D02*
X0066800Y0134400D01*
X0076800Y0134400D02*
X0076800Y0139200D01*
X0086800Y0139200D02*
X0086800Y0134400D01*
X0096800Y0134400D02*
X0096800Y0139200D01*
D11*
X0116800Y0140700D02*
X0116800Y0132900D01*
X0131800Y0132900D02*
X0131800Y0140700D01*
X0076500Y0025700D02*
X0076500Y0017900D01*
X0056800Y0017900D02*
X0056800Y0025700D01*
X0037100Y0025700D02*
X0037100Y0017900D01*
D12*
X0037800Y0021600D02*
X0037100Y0021800D01*
X0076800Y0136800D02*
X0077400Y0136800D01*
D13*
X0106800Y0111800D03*
X0134300Y0086800D03*
X0109300Y0051800D03*
X0076800Y0046800D03*
X0071800Y0061800D03*
X0071800Y0071800D03*
X0021800Y0051800D03*
X0011800Y0056800D03*
X0016800Y0009300D03*
D14*
X0004600Y0004600D02*
X0004600Y0148961D01*
X0147701Y0148961D01*
X0147701Y0026800D01*
X0126800Y0026800D01*
X0121800Y0031800D01*
X0081800Y0031800D01*
X0079600Y0034000D01*
X0107357Y0034000D01*
X0108386Y0034426D01*
X0123386Y0049426D01*
X0124174Y0050214D01*
X0124600Y0051243D01*
X0124600Y0057357D01*
X0124174Y0058386D01*
X0119174Y0063386D01*
X0118386Y0064174D01*
X0117357Y0064600D01*
X0092960Y0064600D01*
X0084174Y0073386D01*
X0083386Y0074174D01*
X0082357Y0074600D01*
X0075364Y0074600D01*
X0075000Y0074964D01*
X0075000Y0122437D01*
X0074513Y0123613D01*
X0070000Y0128125D01*
X0070000Y0131377D01*
X0070530Y0131908D01*
X0071200Y0133525D01*
X0071200Y0140075D01*
X0070530Y0141692D01*
X0069292Y0142930D01*
X0067675Y0143600D01*
X0065925Y0143600D01*
X0064308Y0142930D01*
X0063070Y0141692D01*
X0062400Y0140075D01*
X0062400Y0133525D01*
X0063070Y0131908D01*
X0063600Y0131377D01*
X0063600Y0126163D01*
X0064087Y0124987D01*
X0064987Y0124087D01*
X0068600Y0120475D01*
X0068600Y0074964D01*
X0067985Y0074349D01*
X0067300Y0072695D01*
X0067300Y0070905D01*
X0067756Y0069804D01*
X0059600Y0077960D01*
X0059600Y0130977D01*
X0060530Y0131908D01*
X0061200Y0133525D01*
X0061200Y0140075D01*
X0060530Y0141692D01*
X0059292Y0142930D01*
X0057675Y0143600D01*
X0055925Y0143600D01*
X0054308Y0142930D01*
X0053070Y0141692D01*
X0052400Y0140075D01*
X0052400Y0133525D01*
X0053070Y0131908D01*
X0054000Y0130977D01*
X0054000Y0076243D01*
X0054426Y0075214D01*
X0055214Y0074426D01*
X0065040Y0064600D01*
X0016243Y0064600D01*
X0015214Y0064174D01*
X0012340Y0061300D01*
X0010905Y0061300D01*
X0009251Y0060615D01*
X0007985Y0059349D01*
X0007300Y0057695D01*
X0007300Y0055905D01*
X0007985Y0054251D01*
X0009251Y0052985D01*
X0010905Y0052300D01*
X0012695Y0052300D01*
X0014349Y0052985D01*
X0015615Y0054251D01*
X0016300Y0055905D01*
X0016300Y0057340D01*
X0017960Y0059000D01*
X0068236Y0059000D01*
X0069251Y0057985D01*
X0070905Y0057300D01*
X0072695Y0057300D01*
X0074349Y0057985D01*
X0075615Y0059251D01*
X0076300Y0060905D01*
X0076300Y0062695D01*
X0075844Y0063796D01*
X0090214Y0049426D01*
X0091243Y0049000D01*
X0105736Y0049000D01*
X0106751Y0047985D01*
X0108405Y0047300D01*
X0110195Y0047300D01*
X0111849Y0047985D01*
X0113115Y0049251D01*
X0113800Y0050905D01*
X0113800Y0052695D01*
X0113115Y0054349D01*
X0111849Y0055615D01*
X0110195Y0056300D01*
X0108405Y0056300D01*
X0106751Y0055615D01*
X0105736Y0054600D01*
X0092960Y0054600D01*
X0079174Y0068386D01*
X0078560Y0069000D01*
X0080640Y0069000D01*
X0090214Y0059426D01*
X0091243Y0059000D01*
X0115640Y0059000D01*
X0119000Y0055640D01*
X0119000Y0052960D01*
X0105640Y0039600D01*
X0074000Y0039600D01*
X0069600Y0044000D01*
X0073236Y0044000D01*
X0074251Y0042985D01*
X0075905Y0042300D01*
X0077695Y0042300D01*
X0079349Y0042985D01*
X0080615Y0044251D01*
X0081300Y0045905D01*
X0081300Y0047695D01*
X0080615Y0049349D01*
X0079349Y0050615D01*
X0077695Y0051300D01*
X0075905Y0051300D01*
X0074251Y0050615D01*
X0073236Y0049600D01*
X0064000Y0049600D01*
X0061800Y0051800D01*
X0051800Y0051800D01*
X0049600Y0049600D01*
X0027960Y0049600D01*
X0026300Y0051260D01*
X0026300Y0052695D01*
X0025615Y0054349D01*
X0024349Y0055615D01*
X0022695Y0056300D01*
X0020905Y0056300D01*
X0019251Y0055615D01*
X0017985Y0054349D01*
X0017300Y0052695D01*
X0017300Y0050905D01*
X0017985Y0049251D01*
X0019251Y0047985D01*
X0020905Y0047300D01*
X0022340Y0047300D01*
X0025214Y0044426D01*
X0026243Y0044000D01*
X0046800Y0044000D01*
X0046800Y0039600D01*
X0026243Y0039600D01*
X0025214Y0039174D01*
X0024426Y0038386D01*
X0014426Y0028386D01*
X0014000Y0027357D01*
X0014000Y0012864D01*
X0012985Y0011849D01*
X0012300Y0010195D01*
X0012300Y0008405D01*
X0012985Y0006751D01*
X0014251Y0005485D01*
X0015905Y0004800D01*
X0017695Y0004800D01*
X0019349Y0005485D01*
X0020615Y0006751D01*
X0021300Y0008405D01*
X0021300Y0010195D01*
X0020615Y0011849D01*
X0019600Y0012864D01*
X0019600Y0025640D01*
X0027960Y0034000D01*
X0046800Y0034000D01*
X0046800Y0004600D01*
X0004600Y0004600D01*
X0004600Y0004997D02*
X0015429Y0004997D01*
X0018171Y0004997D02*
X0046800Y0004997D01*
X0046800Y0006596D02*
X0020459Y0006596D01*
X0021213Y0008194D02*
X0046800Y0008194D01*
X0046800Y0009793D02*
X0021300Y0009793D01*
X0020805Y0011391D02*
X0046800Y0011391D01*
X0046800Y0012990D02*
X0040018Y0012990D01*
X0040087Y0013025D02*
X0040813Y0013552D01*
X0041448Y0014187D01*
X0041975Y0014913D01*
X0042382Y0015712D01*
X0042660Y0016565D01*
X0042800Y0017451D01*
X0042800Y0021300D01*
X0037600Y0021300D01*
X0037600Y0022300D01*
X0036600Y0022300D01*
X0036600Y0031392D01*
X0035765Y0031260D01*
X0034912Y0030982D01*
X0034113Y0030575D01*
X0033387Y0030048D01*
X0032752Y0029413D01*
X0032225Y0028687D01*
X0031818Y0027888D01*
X0031540Y0027035D01*
X0031400Y0026149D01*
X0031400Y0022300D01*
X0036600Y0022300D01*
X0036600Y0021300D01*
X0031400Y0021300D01*
X0031400Y0017451D01*
X0031540Y0016565D01*
X0031818Y0015712D01*
X0032225Y0014913D01*
X0032752Y0014187D01*
X0033387Y0013552D01*
X0034113Y0013025D01*
X0034912Y0012618D01*
X0035765Y0012340D01*
X0036600Y0012208D01*
X0036600Y0021300D01*
X0037600Y0021300D01*
X0037600Y0012208D01*
X0038435Y0012340D01*
X0039288Y0012618D01*
X0040087Y0013025D01*
X0041739Y0014588D02*
X0046800Y0014588D01*
X0046800Y0016187D02*
X0042537Y0016187D01*
X0042800Y0017785D02*
X0046800Y0017785D01*
X0046800Y0019384D02*
X0042800Y0019384D01*
X0042800Y0020982D02*
X0046800Y0020982D01*
X0046800Y0022581D02*
X0042800Y0022581D01*
X0042800Y0022300D02*
X0042800Y0026149D01*
X0042660Y0027035D01*
X0042382Y0027888D01*
X0041975Y0028687D01*
X0041448Y0029413D01*
X0040813Y0030048D01*
X0040087Y0030575D01*
X0039288Y0030982D01*
X0038435Y0031260D01*
X0037600Y0031392D01*
X0037600Y0022300D01*
X0042800Y0022300D01*
X0042800Y0024179D02*
X0046800Y0024179D01*
X0046800Y0025778D02*
X0042800Y0025778D01*
X0042549Y0027376D02*
X0046800Y0027376D01*
X0046800Y0028975D02*
X0041766Y0028975D01*
X0040090Y0030573D02*
X0046800Y0030573D01*
X0046800Y0032172D02*
X0026132Y0032172D01*
X0027730Y0033770D02*
X0046800Y0033770D01*
X0046800Y0040164D02*
X0004600Y0040164D01*
X0004600Y0038566D02*
X0024606Y0038566D01*
X0023007Y0036967D02*
X0004600Y0036967D01*
X0004600Y0035369D02*
X0021409Y0035369D01*
X0019810Y0033770D02*
X0004600Y0033770D01*
X0004600Y0032172D02*
X0018212Y0032172D01*
X0016613Y0030573D02*
X0004600Y0030573D01*
X0004600Y0028975D02*
X0015015Y0028975D01*
X0014008Y0027376D02*
X0004600Y0027376D01*
X0004600Y0025778D02*
X0014000Y0025778D01*
X0014000Y0024179D02*
X0004600Y0024179D01*
X0004600Y0022581D02*
X0014000Y0022581D01*
X0014000Y0020982D02*
X0004600Y0020982D01*
X0004600Y0019384D02*
X0014000Y0019384D01*
X0014000Y0017785D02*
X0004600Y0017785D01*
X0004600Y0016187D02*
X0014000Y0016187D01*
X0014000Y0014588D02*
X0004600Y0014588D01*
X0004600Y0012990D02*
X0014000Y0012990D01*
X0012795Y0011391D02*
X0004600Y0011391D01*
X0004600Y0009793D02*
X0012300Y0009793D01*
X0012387Y0008194D02*
X0004600Y0008194D01*
X0004600Y0006596D02*
X0013140Y0006596D01*
X0016800Y0009300D02*
X0016800Y0026800D01*
X0026800Y0036800D01*
X0106800Y0036800D01*
X0121800Y0051800D01*
X0121800Y0056800D01*
X0116800Y0061800D01*
X0091800Y0061800D01*
X0081800Y0071800D01*
X0071800Y0071800D01*
X0067730Y0073733D02*
X0063827Y0073733D01*
X0062228Y0075332D02*
X0068600Y0075332D01*
X0068600Y0076930D02*
X0060630Y0076930D01*
X0059600Y0078529D02*
X0068600Y0078529D01*
X0068600Y0080127D02*
X0059600Y0080127D01*
X0059600Y0081726D02*
X0068600Y0081726D01*
X0068600Y0083324D02*
X0059600Y0083324D01*
X0059600Y0084923D02*
X0068600Y0084923D01*
X0068600Y0086521D02*
X0059600Y0086521D01*
X0059600Y0088120D02*
X0068600Y0088120D01*
X0068600Y0089718D02*
X0059600Y0089718D01*
X0059600Y0091317D02*
X0068600Y0091317D01*
X0068600Y0092915D02*
X0059600Y0092915D01*
X0059600Y0094514D02*
X0068600Y0094514D01*
X0068600Y0096112D02*
X0059600Y0096112D01*
X0059600Y0097711D02*
X0068600Y0097711D01*
X0068600Y0099309D02*
X0059600Y0099309D01*
X0059600Y0100908D02*
X0068600Y0100908D01*
X0068600Y0102506D02*
X0059600Y0102506D01*
X0059600Y0104105D02*
X0068600Y0104105D01*
X0068600Y0105703D02*
X0059600Y0105703D01*
X0059600Y0107302D02*
X0068600Y0107302D01*
X0068600Y0108900D02*
X0059600Y0108900D01*
X0059600Y0110499D02*
X0068600Y0110499D01*
X0068600Y0112097D02*
X0059600Y0112097D01*
X0059600Y0113696D02*
X0068600Y0113696D01*
X0068600Y0115294D02*
X0059600Y0115294D01*
X0059600Y0116893D02*
X0068600Y0116893D01*
X0068600Y0118491D02*
X0059600Y0118491D01*
X0059600Y0120090D02*
X0068600Y0120090D01*
X0067386Y0121688D02*
X0059600Y0121688D01*
X0059600Y0123287D02*
X0065788Y0123287D01*
X0064189Y0124885D02*
X0059600Y0124885D01*
X0059600Y0126484D02*
X0063600Y0126484D01*
X0063600Y0128082D02*
X0059600Y0128082D01*
X0059600Y0129681D02*
X0063600Y0129681D01*
X0063600Y0131279D02*
X0059902Y0131279D01*
X0060932Y0132878D02*
X0062668Y0132878D01*
X0062400Y0134476D02*
X0061200Y0134476D01*
X0061200Y0136075D02*
X0062400Y0136075D01*
X0062400Y0137673D02*
X0061200Y0137673D01*
X0061200Y0139272D02*
X0062400Y0139272D01*
X0062729Y0140870D02*
X0060871Y0140870D01*
X0059754Y0142469D02*
X0063846Y0142469D01*
X0069754Y0142469D02*
X0074154Y0142469D01*
X0074064Y0142404D02*
X0073596Y0141936D01*
X0073208Y0141401D01*
X0072908Y0140812D01*
X0072703Y0140184D01*
X0072600Y0139531D01*
X0072600Y0136800D01*
X0076800Y0136800D01*
X0076800Y0131800D01*
X0079300Y0129300D01*
X0079300Y0121800D01*
X0089300Y0111800D01*
X0106800Y0111800D01*
X0106800Y0106209D01*
X0126209Y0086800D01*
X0134300Y0086800D01*
X0133784Y0086521D02*
X0147701Y0086521D01*
X0147701Y0084923D02*
X0133400Y0084923D01*
X0133400Y0086137D02*
X0137463Y0090200D01*
X0138400Y0091137D01*
X0138400Y0147463D01*
X0137463Y0148400D01*
X0111137Y0148400D01*
X0110200Y0147463D01*
X0110200Y0091137D01*
X0115200Y0086137D01*
X0115200Y0081137D01*
X0115200Y0072463D01*
X0115200Y0071137D01*
X0116137Y0070200D01*
X0132463Y0070200D01*
X0133400Y0071137D01*
X0133400Y0086137D01*
X0135382Y0088120D02*
X0147701Y0088120D01*
X0147701Y0089718D02*
X0136981Y0089718D01*
X0138400Y0091317D02*
X0147701Y0091317D01*
X0147701Y0092915D02*
X0138400Y0092915D01*
X0138400Y0094514D02*
X0147701Y0094514D01*
X0147701Y0096112D02*
X0138400Y0096112D01*
X0138400Y0097711D02*
X0147701Y0097711D01*
X0147701Y0099309D02*
X0138400Y0099309D01*
X0138400Y0100908D02*
X0147701Y0100908D01*
X0147701Y0102506D02*
X0138400Y0102506D01*
X0138400Y0104105D02*
X0147701Y0104105D01*
X0147701Y0105703D02*
X0138400Y0105703D01*
X0138400Y0107302D02*
X0147701Y0107302D01*
X0147701Y0108900D02*
X0138400Y0108900D01*
X0138400Y0110499D02*
X0147701Y0110499D01*
X0147701Y0112097D02*
X0138400Y0112097D01*
X0138400Y0113696D02*
X0147701Y0113696D01*
X0147701Y0115294D02*
X0138400Y0115294D01*
X0138400Y0116893D02*
X0147701Y0116893D01*
X0147701Y0118491D02*
X0138400Y0118491D01*
X0138400Y0120090D02*
X0147701Y0120090D01*
X0147701Y0121688D02*
X0138400Y0121688D01*
X0138400Y0123287D02*
X0147701Y0123287D01*
X0147701Y0124885D02*
X0138400Y0124885D01*
X0138400Y0126484D02*
X0147701Y0126484D01*
X0147701Y0128082D02*
X0138400Y0128082D01*
X0138400Y0129681D02*
X0147701Y0129681D01*
X0147701Y0131279D02*
X0138400Y0131279D01*
X0138400Y0132878D02*
X0147701Y0132878D01*
X0147701Y0134476D02*
X0138400Y0134476D01*
X0138400Y0136075D02*
X0147701Y0136075D01*
X0147701Y0137673D02*
X0138400Y0137673D01*
X0138400Y0139272D02*
X0147701Y0139272D01*
X0147701Y0140870D02*
X0138400Y0140870D01*
X0138400Y0142469D02*
X0147701Y0142469D01*
X0147701Y0144068D02*
X0138400Y0144068D01*
X0138400Y0145666D02*
X0147701Y0145666D01*
X0147701Y0147265D02*
X0138400Y0147265D01*
X0147701Y0148863D02*
X0004600Y0148863D01*
X0004600Y0147265D02*
X0110200Y0147265D01*
X0110200Y0145666D02*
X0004600Y0145666D01*
X0004600Y0144068D02*
X0110200Y0144068D01*
X0110200Y0142469D02*
X0099754Y0142469D01*
X0099292Y0142930D02*
X0097675Y0143600D01*
X0095925Y0143600D01*
X0094308Y0142930D01*
X0093070Y0141692D01*
X0092400Y0140075D01*
X0092400Y0133525D01*
X0093070Y0131908D01*
X0094308Y0130670D01*
X0095925Y0130000D01*
X0097675Y0130000D01*
X0099292Y0130670D01*
X0100530Y0131908D01*
X0101200Y0133525D01*
X0101200Y0140075D01*
X0100530Y0141692D01*
X0099292Y0142930D01*
X0100871Y0140870D02*
X0110200Y0140870D01*
X0110200Y0139272D02*
X0101200Y0139272D01*
X0101200Y0137673D02*
X0110200Y0137673D01*
X0110200Y0136075D02*
X0101200Y0136075D01*
X0101200Y0134476D02*
X0110200Y0134476D01*
X0110200Y0132878D02*
X0100932Y0132878D01*
X0099902Y0131279D02*
X0110200Y0131279D01*
X0110200Y0129681D02*
X0070000Y0129681D01*
X0070000Y0131279D02*
X0073981Y0131279D01*
X0074064Y0131196D02*
X0074599Y0130808D01*
X0075188Y0130508D01*
X0075816Y0130303D01*
X0076469Y0130200D01*
X0076800Y0130200D01*
X0077131Y0130200D01*
X0077784Y0130303D01*
X0078412Y0130508D01*
X0079001Y0130808D01*
X0079536Y0131196D01*
X0080004Y0131664D01*
X0080392Y0132199D01*
X0080692Y0132788D01*
X0080897Y0133416D01*
X0081000Y0134069D01*
X0081000Y0136800D01*
X0081000Y0139531D01*
X0080897Y0140184D01*
X0080692Y0140812D01*
X0080392Y0141401D01*
X0080004Y0141936D01*
X0079536Y0142404D01*
X0079001Y0142792D01*
X0078412Y0143092D01*
X0077784Y0143297D01*
X0077131Y0143400D01*
X0076800Y0143400D01*
X0076800Y0136800D01*
X0081000Y0136800D01*
X0076800Y0136800D01*
X0076800Y0136800D01*
X0076800Y0136800D01*
X0076800Y0130200D01*
X0076800Y0136800D01*
X0076800Y0136800D01*
X0076800Y0136800D01*
X0076800Y0143400D01*
X0076469Y0143400D01*
X0075816Y0143297D01*
X0075188Y0143092D01*
X0074599Y0142792D01*
X0074064Y0142404D01*
X0072937Y0140870D02*
X0070871Y0140870D01*
X0071200Y0139272D02*
X0072600Y0139272D01*
X0072600Y0137673D02*
X0071200Y0137673D01*
X0071200Y0136075D02*
X0072600Y0136075D01*
X0072600Y0136800D02*
X0072600Y0134069D01*
X0072703Y0133416D01*
X0072908Y0132788D01*
X0073208Y0132199D01*
X0073596Y0131664D01*
X0074064Y0131196D01*
X0072878Y0132878D02*
X0070932Y0132878D01*
X0071200Y0134476D02*
X0072600Y0134476D01*
X0072600Y0136800D02*
X0076800Y0136800D01*
X0076800Y0136075D02*
X0076800Y0136075D01*
X0076800Y0137673D02*
X0076800Y0137673D01*
X0076800Y0139272D02*
X0076800Y0139272D01*
X0076800Y0140870D02*
X0076800Y0140870D01*
X0076800Y0142469D02*
X0076800Y0142469D01*
X0079446Y0142469D02*
X0083846Y0142469D01*
X0084308Y0142930D02*
X0083070Y0141692D01*
X0082400Y0140075D01*
X0082400Y0133525D01*
X0083070Y0131908D01*
X0084308Y0130670D01*
X0085925Y0130000D01*
X0087675Y0130000D01*
X0089292Y0130670D01*
X0090530Y0131908D01*
X0091200Y0133525D01*
X0091200Y0140075D01*
X0090530Y0141692D01*
X0089292Y0142930D01*
X0087675Y0143600D01*
X0085925Y0143600D01*
X0084308Y0142930D01*
X0082729Y0140870D02*
X0080663Y0140870D01*
X0081000Y0139272D02*
X0082400Y0139272D01*
X0082400Y0137673D02*
X0081000Y0137673D01*
X0081000Y0136075D02*
X0082400Y0136075D01*
X0082400Y0134476D02*
X0081000Y0134476D01*
X0080722Y0132878D02*
X0082668Y0132878D01*
X0083698Y0131279D02*
X0079619Y0131279D01*
X0076800Y0131279D02*
X0076800Y0131279D01*
X0076800Y0132878D02*
X0076800Y0132878D01*
X0076800Y0134476D02*
X0076800Y0134476D01*
X0070043Y0128082D02*
X0110200Y0128082D01*
X0110200Y0126484D02*
X0071642Y0126484D01*
X0073240Y0124885D02*
X0110200Y0124885D01*
X0110200Y0123287D02*
X0074648Y0123287D01*
X0075000Y0121688D02*
X0110200Y0121688D01*
X0110200Y0120090D02*
X0075000Y0120090D01*
X0075000Y0118491D02*
X0110200Y0118491D01*
X0110200Y0116893D02*
X0075000Y0116893D01*
X0075000Y0115294D02*
X0110200Y0115294D01*
X0110200Y0113696D02*
X0075000Y0113696D01*
X0075000Y0112097D02*
X0110200Y0112097D01*
X0110200Y0110499D02*
X0075000Y0110499D01*
X0075000Y0108900D02*
X0110200Y0108900D01*
X0110200Y0107302D02*
X0075000Y0107302D01*
X0075000Y0105703D02*
X0110200Y0105703D01*
X0110200Y0104105D02*
X0075000Y0104105D01*
X0075000Y0102506D02*
X0110200Y0102506D01*
X0110200Y0100908D02*
X0075000Y0100908D01*
X0075000Y0099309D02*
X0110200Y0099309D01*
X0110200Y0097711D02*
X0075000Y0097711D01*
X0075000Y0096112D02*
X0110200Y0096112D01*
X0110200Y0094514D02*
X0075000Y0094514D01*
X0075000Y0092915D02*
X0110200Y0092915D01*
X0110200Y0091317D02*
X0075000Y0091317D01*
X0075000Y0089718D02*
X0111619Y0089718D01*
X0113218Y0088120D02*
X0075000Y0088120D01*
X0075000Y0086521D02*
X0114816Y0086521D01*
X0115200Y0084923D02*
X0075000Y0084923D01*
X0075000Y0083324D02*
X0115200Y0083324D01*
X0115200Y0081726D02*
X0075000Y0081726D01*
X0075000Y0080127D02*
X0115200Y0080127D01*
X0115200Y0078529D02*
X0075000Y0078529D01*
X0075000Y0076930D02*
X0115200Y0076930D01*
X0115200Y0075332D02*
X0075000Y0075332D01*
X0078622Y0068937D02*
X0080703Y0068937D01*
X0079174Y0068386D02*
X0079174Y0068386D01*
X0080221Y0067339D02*
X0082301Y0067339D01*
X0081819Y0065740D02*
X0083900Y0065740D01*
X0083418Y0064142D02*
X0085498Y0064142D01*
X0085016Y0062543D02*
X0087097Y0062543D01*
X0086615Y0060945D02*
X0088695Y0060945D01*
X0088213Y0059346D02*
X0090407Y0059346D01*
X0089812Y0057748D02*
X0116892Y0057748D01*
X0118491Y0056149D02*
X0110559Y0056149D01*
X0108041Y0056149D02*
X0091410Y0056149D01*
X0091800Y0051800D02*
X0076800Y0066800D01*
X0066800Y0066800D01*
X0056800Y0076800D01*
X0056800Y0136800D01*
X0052400Y0136075D02*
X0004600Y0136075D01*
X0004600Y0137673D02*
X0052400Y0137673D01*
X0052400Y0139272D02*
X0004600Y0139272D01*
X0004600Y0140870D02*
X0052729Y0140870D01*
X0053846Y0142469D02*
X0004600Y0142469D01*
X0004600Y0134476D02*
X0052400Y0134476D01*
X0052668Y0132878D02*
X0004600Y0132878D01*
X0004600Y0131279D02*
X0053698Y0131279D01*
X0054000Y0129681D02*
X0004600Y0129681D01*
X0004600Y0128082D02*
X0054000Y0128082D01*
X0054000Y0126484D02*
X0004600Y0126484D01*
X0004600Y0124885D02*
X0054000Y0124885D01*
X0054000Y0123287D02*
X0004600Y0123287D01*
X0004600Y0121688D02*
X0054000Y0121688D01*
X0054000Y0120090D02*
X0004600Y0120090D01*
X0004600Y0118491D02*
X0054000Y0118491D01*
X0054000Y0116893D02*
X0004600Y0116893D01*
X0004600Y0115294D02*
X0054000Y0115294D01*
X0054000Y0113696D02*
X0004600Y0113696D01*
X0004600Y0112097D02*
X0054000Y0112097D01*
X0054000Y0110499D02*
X0004600Y0110499D01*
X0004600Y0108900D02*
X0054000Y0108900D01*
X0054000Y0107302D02*
X0004600Y0107302D01*
X0004600Y0105703D02*
X0054000Y0105703D01*
X0054000Y0104105D02*
X0004600Y0104105D01*
X0004600Y0102506D02*
X0054000Y0102506D01*
X0054000Y0100908D02*
X0004600Y0100908D01*
X0004600Y0099309D02*
X0054000Y0099309D01*
X0054000Y0097711D02*
X0004600Y0097711D01*
X0004600Y0096112D02*
X0054000Y0096112D01*
X0054000Y0094514D02*
X0004600Y0094514D01*
X0004600Y0092915D02*
X0054000Y0092915D01*
X0054000Y0091317D02*
X0004600Y0091317D01*
X0004600Y0089718D02*
X0054000Y0089718D01*
X0054000Y0088120D02*
X0004600Y0088120D01*
X0004600Y0086521D02*
X0054000Y0086521D01*
X0054000Y0084923D02*
X0004600Y0084923D01*
X0004600Y0083324D02*
X0054000Y0083324D01*
X0054000Y0081726D02*
X0004600Y0081726D01*
X0004600Y0080127D02*
X0054000Y0080127D01*
X0054000Y0078529D02*
X0004600Y0078529D01*
X0004600Y0076930D02*
X0054000Y0076930D01*
X0054378Y0075332D02*
X0004600Y0075332D01*
X0004600Y0073733D02*
X0055907Y0073733D01*
X0057506Y0072134D02*
X0004600Y0072134D01*
X0004600Y0070536D02*
X0059104Y0070536D01*
X0060703Y0068937D02*
X0004600Y0068937D01*
X0004600Y0067339D02*
X0062301Y0067339D01*
X0063900Y0065740D02*
X0004600Y0065740D01*
X0004600Y0064142D02*
X0015182Y0064142D01*
X0013584Y0062543D02*
X0004600Y0062543D01*
X0004600Y0060945D02*
X0010048Y0060945D01*
X0007984Y0059346D02*
X0004600Y0059346D01*
X0004600Y0057748D02*
X0007322Y0057748D01*
X0007300Y0056149D02*
X0004600Y0056149D01*
X0004600Y0054551D02*
X0007861Y0054551D01*
X0009330Y0052952D02*
X0004600Y0052952D01*
X0004600Y0051354D02*
X0017300Y0051354D01*
X0017407Y0052952D02*
X0014270Y0052952D01*
X0015739Y0054551D02*
X0018187Y0054551D01*
X0016300Y0056149D02*
X0020541Y0056149D01*
X0023059Y0056149D02*
X0083491Y0056149D01*
X0085089Y0054551D02*
X0025413Y0054551D01*
X0026193Y0052952D02*
X0086688Y0052952D01*
X0088286Y0051354D02*
X0062246Y0051354D01*
X0063845Y0049755D02*
X0073391Y0049755D01*
X0076800Y0046800D02*
X0026800Y0046800D01*
X0021800Y0051800D01*
X0019079Y0048157D02*
X0004600Y0048157D01*
X0004600Y0049755D02*
X0017776Y0049755D01*
X0023082Y0046558D02*
X0004600Y0046558D01*
X0004600Y0044960D02*
X0024680Y0044960D01*
X0027804Y0049755D02*
X0049755Y0049755D01*
X0051354Y0051354D02*
X0026300Y0051354D01*
X0016708Y0057748D02*
X0069824Y0057748D01*
X0073776Y0057748D02*
X0081892Y0057748D01*
X0080294Y0059346D02*
X0075654Y0059346D01*
X0076300Y0060945D02*
X0078695Y0060945D01*
X0077097Y0062543D02*
X0076300Y0062543D01*
X0071800Y0061800D02*
X0016800Y0061800D01*
X0011800Y0056800D01*
X0004600Y0043361D02*
X0046800Y0043361D01*
X0046800Y0041763D02*
X0004600Y0041763D01*
X0019737Y0025778D02*
X0031400Y0025778D01*
X0031400Y0024179D02*
X0019600Y0024179D01*
X0019600Y0022581D02*
X0031400Y0022581D01*
X0031400Y0020982D02*
X0019600Y0020982D01*
X0019600Y0019384D02*
X0031400Y0019384D01*
X0031400Y0017785D02*
X0019600Y0017785D01*
X0019600Y0016187D02*
X0031663Y0016187D01*
X0032461Y0014588D02*
X0019600Y0014588D01*
X0019600Y0012990D02*
X0034182Y0012990D01*
X0036600Y0012990D02*
X0037600Y0012990D01*
X0037600Y0014588D02*
X0036600Y0014588D01*
X0036600Y0016187D02*
X0037600Y0016187D01*
X0037600Y0017785D02*
X0036600Y0017785D01*
X0036600Y0019384D02*
X0037600Y0019384D01*
X0037600Y0020982D02*
X0036600Y0020982D01*
X0036600Y0022581D02*
X0037600Y0022581D01*
X0037600Y0024179D02*
X0036600Y0024179D01*
X0036600Y0025778D02*
X0037600Y0025778D01*
X0037600Y0027376D02*
X0036600Y0027376D01*
X0036600Y0028975D02*
X0037600Y0028975D01*
X0037600Y0030573D02*
X0036600Y0030573D01*
X0034110Y0030573D02*
X0024533Y0030573D01*
X0022934Y0028975D02*
X0032434Y0028975D01*
X0031651Y0027376D02*
X0021336Y0027376D01*
X0065425Y0072134D02*
X0067300Y0072134D01*
X0067453Y0070536D02*
X0067024Y0070536D01*
X0083827Y0073733D02*
X0115200Y0073733D01*
X0115200Y0072134D02*
X0085425Y0072134D01*
X0087024Y0070536D02*
X0115801Y0070536D01*
X0118418Y0064142D02*
X0147701Y0064142D01*
X0147701Y0065740D02*
X0091819Y0065740D01*
X0090221Y0067339D02*
X0147701Y0067339D01*
X0147701Y0068937D02*
X0088622Y0068937D01*
X0091800Y0051800D02*
X0109300Y0051800D01*
X0113324Y0049755D02*
X0115796Y0049755D01*
X0117394Y0051354D02*
X0113800Y0051354D01*
X0113693Y0052952D02*
X0118993Y0052952D01*
X0119000Y0054551D02*
X0112913Y0054551D01*
X0112021Y0048157D02*
X0114197Y0048157D01*
X0112599Y0046558D02*
X0081300Y0046558D01*
X0081109Y0048157D02*
X0106579Y0048157D01*
X0111000Y0044960D02*
X0080909Y0044960D01*
X0079725Y0043361D02*
X0109402Y0043361D01*
X0107803Y0041763D02*
X0071837Y0041763D01*
X0070239Y0043361D02*
X0073875Y0043361D01*
X0073436Y0040164D02*
X0106204Y0040164D01*
X0110927Y0036967D02*
X0147701Y0036967D01*
X0147701Y0035369D02*
X0109329Y0035369D01*
X0112526Y0038566D02*
X0147701Y0038566D01*
X0147701Y0040164D02*
X0114124Y0040164D01*
X0115723Y0041763D02*
X0147701Y0041763D01*
X0147701Y0043361D02*
X0117321Y0043361D01*
X0118920Y0044960D02*
X0147701Y0044960D01*
X0147701Y0046558D02*
X0120518Y0046558D01*
X0122117Y0048157D02*
X0147701Y0048157D01*
X0147701Y0049755D02*
X0123715Y0049755D01*
X0124600Y0051354D02*
X0147701Y0051354D01*
X0147701Y0052952D02*
X0124600Y0052952D01*
X0124600Y0054551D02*
X0147701Y0054551D01*
X0147701Y0056149D02*
X0124600Y0056149D01*
X0124438Y0057748D02*
X0147701Y0057748D01*
X0147701Y0059346D02*
X0123213Y0059346D01*
X0121615Y0060945D02*
X0147701Y0060945D01*
X0147701Y0062543D02*
X0120016Y0062543D01*
X0132799Y0070536D02*
X0147701Y0070536D01*
X0147701Y0072134D02*
X0133400Y0072134D01*
X0133400Y0073733D02*
X0147701Y0073733D01*
X0147701Y0075332D02*
X0133400Y0075332D01*
X0133400Y0076930D02*
X0147701Y0076930D01*
X0147701Y0078529D02*
X0133400Y0078529D01*
X0133400Y0080127D02*
X0147701Y0080127D01*
X0147701Y0081726D02*
X0133400Y0081726D01*
X0133400Y0083324D02*
X0147701Y0083324D01*
X0147701Y0033770D02*
X0079830Y0033770D01*
X0081428Y0032172D02*
X0147701Y0032172D01*
X0147701Y0030573D02*
X0123027Y0030573D01*
X0124625Y0028975D02*
X0147701Y0028975D01*
X0147701Y0027376D02*
X0126224Y0027376D01*
X0089885Y0049755D02*
X0080209Y0049755D01*
X0089902Y0131279D02*
X0093698Y0131279D01*
X0092668Y0132878D02*
X0090932Y0132878D01*
X0091200Y0134476D02*
X0092400Y0134476D01*
X0092400Y0136075D02*
X0091200Y0136075D01*
X0091200Y0137673D02*
X0092400Y0137673D01*
X0092400Y0139272D02*
X0091200Y0139272D01*
X0090871Y0140870D02*
X0092729Y0140870D01*
X0093846Y0142469D02*
X0089754Y0142469D01*
D15*
X0071800Y0121800D02*
X0066800Y0126800D01*
X0066800Y0136800D01*
X0071800Y0121800D02*
X0071800Y0071800D01*
M02*
